# xmcd
#
# Track frame offsets: 
#        150
#        25197
#        40591
#        58323
#        72774
#        90621
#        103281
#        117091
#        132300
#        146225
#        163040
#        174928
#        188939
#        206044
#        226434
#        250628
#        266388
#        282671
#        312347
#        327122
#
# Disc length: 4573 seconds
#
# Revision: 0
# Processed by: cddbd v1.5.2PL0 Copyright (c) Steve Scherf et al.
# Submitted via: ExactAudioCopy v1.0b3
#
DISCID=2711db14
DTITLE=Various Artist - Disco Bass Vol. 1 - CD 1
DYEAR=1900
DGENRE=
TTITLE0=DJ Jean - Feel It (Greatest Deejay Remix)
TTITLE1=Raveboy - Check My Beat (...On The Floor)
TTITLE2=2 Jays - Heartquake
TTITLE3=Rave Allstars - Wonderful Days 2006
TTITLE4=TV Junkeez - Knight Rider (Bangbros. Radio Mix)
TTITLE5=The Real Booty Babes - It's A Fine Day
TTITLE6=Greatest Deejay - Cut The Music (Club Cut)
TTITLE7=The Hitmen - Bass Up (Single Edit)
TTITLE8=Acardipane Vs. Balloon - Go West (Special Rmx Edit)
TTITLE9=M.Y.C. - What Up! (DJ Manian Mix Edit)
TTITLE10=Tom Mountain - Little Respect (The Real Booty Babes Radio Mix
TTITLE10=)
TTITLE11=Sample Rippers - Miracle Maker (Radio Mix)
TTITLE12=Anima Ladina Vs. MNS - Extasy (Rocco Vs. Bass-T Radio Mix)
TTITLE13=Bangboy Meets Hansebanger - Kiezstyle (Disco Radio Mix)
TTITLE14=Pikko Vs. DJ Bomba - House (DJ Bomba Radio Mix)
TTITLE15=Here and Now - Bizarre Love Triangle (Rocco Vs. Bass-T Radio Mi
TTITLE15=x)
TTITLE16=Rumble - Can You Feel It? (Club Mix Edit)
TTITLE17=Klubbdriver - Quadrophonia (Klubbheads Electrovate Mix)
TTITLE18=Brisby and Jingles - Here We Go (Radio Edit)
TTITLE19=Symposium - 10101 The Binary Code (Radio Mix)
EXTD=
EXTT0=
EXTT1=
EXTT2=
EXTT3=
EXTT4=
EXTT5=
EXTT6=
EXTT7=
EXTT8=
EXTT9=
EXTT10=
EXTT11=
EXTT12=
EXTT13=
EXTT14=
EXTT15=
EXTT16=
EXTT17=
EXTT18=
EXTT19=
PLAYORDER=
